<mxfile host="app.diagrams.net" modified="2023-09-06T09:09:42.252Z" agent="Mozilla/5.0 (Windows NT 10.0; Win64; x64) AppleWebKit/537.36 (KHTML, like Gecko) Chrome/116.0.0.0 Safari/537.36 Edg/116.0.1938.54" version="21.7.2" etag="tBSIcA8gdzY5r79swHbD" type="github">
  <diagram name="Page-1" id="8ckNkaq2Ih3nviJ6GDon">
    <mxGraphModel>
      <root>
        <mxCell id="0" />
        <mxCell id="1" parent="0" />
      </root>
    </mxGraphModel>
  </diagram>
</mxfile>
